<svg id="Layer_2" fill="#fff" data-name="Layer 2" xmlns="http://www.w3.org/2000/svg" viewBox="0 0 128 128"><title>ELECTRIC GUITAR</title><path d="M58,31.682H22.667a1.75,1.75,0,0,0-1.75,1.75v62.9a1.75,1.75,0,0,0,1.75,1.75H58a1.75,1.75,0,0,0,1.75-1.75v-62.9A1.75,1.75,0,0,0,58,31.682Zm-1.75,62.9H24.417v-59.4H56.25Z"/><path d="M48.946,66.632h2.675a1.75,1.75,0,0,0,0-3.5H48.947a1.75,1.75,0,0,0,0,3.5Z"/><path d="M111.333,25.682H16.667a1.75,1.75,0,0,0-1.75,1.75v74.9a1.75,1.75,0,0,0,1.75,1.75h94.667a1.75,1.75,0,0,0,1.75-1.75v-74.9A1.75,1.75,0,0,0,111.333,25.682Zm-92.917,3.5H62.25v71.4H18.417Zm91.167,71.4H65.75v-71.4h43.833Z"/><path d="M70,98.083h35.333a1.75,1.75,0,0,0,1.75-1.75v-62.9a1.75,1.75,0,0,0-1.75-1.75H70a1.75,1.75,0,0,0-1.75,1.75v62.9A1.75,1.75,0,0,0,70,98.083Zm1.75-62.9h31.833v59.4H71.75Z"/><path d="M79.054,63.132H76.378a1.75,1.75,0,0,0,0,3.5h2.675a1.75,1.75,0,0,0,0-3.5Z"/><path d="M35.542,45.116a1.75,1.75,0,0,0,1.75-1.75V40.691a1.75,1.75,0,0,0-3.5,0v2.675A1.75,1.75,0,0,0,35.542,45.116Z"/><path d="M29.608,48.569h2.675a1.75,1.75,0,0,0,0-3.5H29.608a1.75,1.75,0,0,0,0,3.5Z"/><path d="M35.737,48.329a1.75,1.75,0,0,0-1.75,1.75v2.675a1.75,1.75,0,0,0,3.5,0V50.079A1.75,1.75,0,0,0,35.737,48.329Z"/><path d="M39,48.375h2.675a1.75,1.75,0,0,0,0-3.5H39a1.75,1.75,0,0,0,0,3.5Z"/><path d="M93.6,81.491a1.75,1.75,0,0,0,1.75-1.75V77.066a1.75,1.75,0,0,0-3.5,0v2.675A1.75,1.75,0,0,0,93.6,81.491Z"/><path d="M90.342,81.444H87.667a1.75,1.75,0,1,0,0,3.5h2.675a1.75,1.75,0,0,0,0-3.5Z"/><path d="M93.8,84.7a1.75,1.75,0,0,0-1.75,1.75v2.675a1.75,1.75,0,0,0,3.5,0V86.454A1.75,1.75,0,0,0,93.8,84.7Z"/><path d="M99.729,81.25H97.054a1.75,1.75,0,1,0,0,3.5h2.675a1.75,1.75,0,0,0,0-3.5Z"/></svg>